<svg width="103" height="42" viewBox="0 0 103 42" fill="none" xmlns="http://www.w3.org/2000/svg">
<g filter="url(#filter0_d_208_23)">
<path d="M31.192 32.024L34.336 14.96L41.92 14.312C41.808 14.664 41.712 15.024 41.632 15.392C41.552 15.696 41.472 16.016 41.392 16.352C41.328 16.672 41.272 16.96 41.224 17.216C41.016 17.232 40.72 17.248 40.336 17.264C39.952 17.264 39.56 17.272 39.16 17.288C38.76 17.288 38.416 17.288 38.128 17.288C37.84 17.288 37.688 17.288 37.672 17.288L36.832 21.584L38.224 21.512C38.4 21.496 38.576 21.488 38.752 21.488C38.944 21.488 39.128 21.488 39.304 21.488C39.48 21.488 39.64 21.488 39.784 21.488C39.928 21.488 40.04 21.48 40.12 21.464C40.088 21.688 40.056 21.912 40.024 22.136C40.008 22.344 39.984 22.56 39.952 22.784L39.736 24.104C39.656 24.12 39.552 24.128 39.424 24.128C39.296 24.128 39.144 24.128 38.968 24.128C38.792 24.144 38.608 24.152 38.416 24.152C38.224 24.152 38.04 24.16 37.864 24.176C37.656 24.192 37.44 24.2 37.216 24.2C36.992 24.2 36.752 24.208 36.496 24.224L35.68 28.64L39.184 28.088L38.944 30.824L31.192 32.024Z" fill="#81F75C"/>
</g>
<g filter="url(#filter1_d_208_23)">
<path d="M25.82 29.97C26.16 28.79 26.49 27.45 26.81 25.95C27.15 24.45 27.47 22.92 27.77 21.36C28.09 19.78 28.39 18.29 28.67 16.89C28.93 15.61 29.18 14.31 29.42 12.99C29.66 11.67 29.9 10.34 30.14 9L34.82 8.25C34.56 9.59 34.3 10.92 34.04 12.24C33.78 13.54 33.52 14.84 33.26 16.14C32.98 17.54 32.69 19.02 32.39 20.58C32.09 22.14 31.8 23.68 31.52 25.2C31.24 26.7 30.98 28.1 30.74 29.4C30.38 29.4 29.93 29.43 29.39 29.49C28.85 29.53 28.31 29.59 27.77 29.67C27.23 29.73 26.77 29.79 26.39 29.85C26.03 29.91 25.84 29.95 25.82 29.97Z" fill="#81F75C"/>
</g>
<g filter="url(#filter2_d_208_23)">
<path d="M59.82 29.97C60.16 28.79 60.49 27.45 60.81 25.95C61.15 24.45 61.47 22.92 61.77 21.36C62.09 19.78 62.39 18.29 62.67 16.89C62.93 15.61 63.18 14.31 63.42 12.99C63.66 11.67 63.9 10.34 64.14 9L68.82 8.25C68.56 9.59 68.3 10.92 68.04 12.24C67.78 13.54 67.52 14.84 67.26 16.14C66.98 17.54 66.69 19.02 66.39 20.58C66.09 22.14 65.8 23.68 65.52 25.2C65.24 26.7 64.98 28.1 64.74 29.4C64.38 29.4 63.93 29.43 63.39 29.49C62.85 29.53 62.31 29.59 61.77 29.67C61.23 29.73 60.77 29.79 60.39 29.85C60.03 29.91 59.84 29.95 59.82 29.97Z" fill="#81F75C"/>
</g>
<g filter="url(#filter3_d_208_23)">
<path d="M51.192 29.024L54.336 11.96L61.92 11.312C61.808 11.664 61.712 12.024 61.632 12.392C61.552 12.696 61.472 13.016 61.392 13.352C61.328 13.672 61.272 13.96 61.224 14.216C61.016 14.232 60.72 14.248 60.336 14.264C59.952 14.264 59.56 14.272 59.16 14.288C58.76 14.288 58.416 14.288 58.128 14.288C57.84 14.288 57.688 14.288 57.672 14.288L56.832 18.584L58.224 18.512C58.4 18.496 58.576 18.488 58.752 18.488C58.944 18.488 59.128 18.488 59.304 18.488C59.48 18.488 59.64 18.488 59.784 18.488C59.928 18.488 60.04 18.48 60.12 18.464C60.088 18.688 60.056 18.912 60.024 19.136C60.008 19.344 59.984 19.56 59.952 19.784L59.736 21.104C59.656 21.12 59.552 21.128 59.424 21.128C59.296 21.128 59.144 21.128 58.968 21.128C58.792 21.144 58.608 21.152 58.416 21.152C58.224 21.152 58.04 21.16 57.864 21.176C57.656 21.192 57.44 21.2 57.216 21.2C56.992 21.2 56.752 21.208 56.496 21.224L55.68 25.64L59.184 25.088L58.944 27.824L51.192 29.024Z" fill="#81F75C"/>
</g>
<g filter="url(#filter4_d_208_23)">
<path d="M83.252 31.056C83.4947 29.768 83.728 28.4987 83.952 27.248C84.1947 25.9787 84.4373 24.7187 84.68 23.468C84.9413 21.9187 85.184 20.4627 85.408 19.1C85.6507 17.7373 85.884 16.384 86.108 15.04C86.3507 13.696 86.584 12.2867 86.808 10.812L91.344 10.504C91.0267 11.8107 90.7093 13.1733 90.392 14.592C90.0933 16.0107 89.8133 17.392 89.552 18.736L92.324 18.428C92.4547 17.7747 92.576 17.1307 92.688 16.496C92.8187 15.8427 92.9307 15.1987 93.024 14.564C93.1173 13.948 93.2293 13.3227 93.36 12.688C93.5093 12.0347 93.668 11.3813 93.836 10.728C94.508 10.616 95.1893 10.532 95.88 10.476C96.5707 10.4013 97.1493 10.3547 97.616 10.336C98.0827 10.2987 98.316 10.28 98.316 10.28C98.0733 11.0267 97.8307 11.904 97.588 12.912C97.3453 13.92 97.112 14.984 96.888 16.104C96.664 17.224 96.4493 18.344 96.244 19.464C96.0387 20.5653 95.852 21.592 95.684 22.544C95.4787 23.7387 95.2827 24.9427 95.096 26.156C94.9093 27.3507 94.7227 28.5733 94.536 29.824L90.168 30.328C90.2987 29.768 90.4107 29.2173 90.504 28.676C90.616 28.116 90.7187 27.5747 90.812 27.052C90.9987 26.156 91.1853 25.2227 91.372 24.252C91.5773 23.2813 91.736 22.4507 91.848 21.76L89.132 22.012C89.0573 22.3667 88.9827 22.7493 88.908 23.16C88.852 23.5707 88.7773 24.0093 88.684 24.476C88.5907 24.9427 88.4973 25.4 88.404 25.848C88.3293 26.2773 88.2547 26.7067 88.18 27.136C88.0867 27.64 87.984 28.144 87.872 28.648C87.76 29.152 87.6573 29.656 87.564 30.16L83.252 31.056Z" fill="#81F75C"/>
</g>
<g filter="url(#filter5_d_208_23)">
<path d="M79.104 29.048C78.464 29.048 77.824 28.88 77.184 28.544C76.544 28.192 75.928 27.64 75.336 26.888L77.112 23.408C77.288 23.712 77.544 24 77.88 24.272C78.232 24.544 78.6 24.76 78.984 24.92C79.368 25.08 79.696 25.16 79.968 25.16C80.384 25.16 80.776 25.032 81.144 24.776C81.528 24.52 81.72 24.176 81.72 23.744C81.72 23.184 81.464 22.672 80.952 22.208C80.44 21.744 79.864 21.288 79.224 20.84C78.6 20.392 78.024 19.888 77.496 19.328C76.984 18.752 76.728 18.096 76.728 17.36C76.728 16.528 76.968 15.76 77.448 15.056C77.928 14.336 78.552 13.712 79.32 13.184C80.088 12.64 80.904 12.224 81.768 11.936C82.648 11.632 83.48 11.48 84.264 11.48C84.824 11.48 85.344 11.576 85.824 11.768C86.304 11.944 86.688 12.24 86.976 12.656C87.264 13.072 87.408 13.632 87.408 14.336C87.408 14.448 87.4 14.56 87.384 14.672C87.384 14.784 87.376 14.896 87.36 15.008C87.344 15.12 87.32 15.24 87.288 15.368C87.272 15.48 87.256 15.6 87.24 15.728L83.76 16.736C83.792 16.608 83.816 16.48 83.832 16.352C83.864 16.224 83.88 16.096 83.88 15.968C83.88 15.488 83.792 15.144 83.616 14.936C83.456 14.712 83.24 14.6 82.968 14.6C82.824 14.6 82.616 14.68 82.344 14.84C82.072 14.984 81.824 15.192 81.6 15.464C81.392 15.72 81.288 16.008 81.288 16.328C81.288 16.856 81.504 17.296 81.936 17.648C82.384 17.984 82.896 18.328 83.472 18.68C83.744 18.84 84.048 19.096 84.384 19.448C84.72 19.784 85.008 20.248 85.248 20.84C85.504 21.416 85.632 22.16 85.632 23.072C85.632 24.256 85.336 25.296 84.744 26.192C84.168 27.088 83.384 27.792 82.392 28.304C81.4 28.8 80.304 29.048 79.104 29.048Z" fill="#81F75C"/>
</g>
<g filter="url(#filter6_d_208_23)">
<path d="M70.82 26.97C71.16 25.79 71.49 24.45 71.81 22.95C72.15 21.45 72.47 19.92 72.77 18.36C73.09 16.78 73.39 15.29 73.67 13.89C73.93 12.61 74.18 11.31 74.42 9.99C74.66 8.67 74.9 7.34 75.14 6L79.82 5.25C79.56 6.59 79.3 7.92 79.04 9.24C78.78 10.54 78.52 11.84 78.26 13.14C77.98 14.54 77.69 16.02 77.39 17.58C77.09 19.14 76.8 20.68 76.52 22.2C76.24 23.7 75.98 25.1 75.74 26.4C75.38 26.4 74.93 26.43 74.39 26.49C73.85 26.53 73.31 26.59 72.77 26.67C72.23 26.73 71.77 26.79 71.39 26.85C71.03 26.91 70.84 26.95 70.82 26.97Z" fill="#81F75C"/>
</g>
<g filter="url(#filter7_d_208_23)">
<path d="M20.288 34.048C20.464 32.784 20.648 31.512 20.84 30.232C21.048 28.952 21.256 27.72 21.464 26.536C21.688 25.336 21.896 24.256 22.088 23.296C22.296 22.256 22.504 21.2 22.712 20.128C22.92 19.056 23.136 17.976 23.36 16.888L27.56 16.336L26.312 21.76C26.088 22.704 25.856 23.72 25.616 24.808C25.392 25.88 25.184 26.92 24.992 27.928C24.8 28.936 24.648 29.832 24.536 30.616C24.936 30.584 25.36 30.568 25.808 30.568C26.272 30.552 26.68 30.544 27.032 30.544C27.048 30.912 27.08 31.304 27.128 31.72C27.176 32.12 27.224 32.472 27.272 32.776C27.336 33.064 27.368 33.224 27.368 33.256C27.304 33.256 27.24 33.256 27.176 33.256C27.128 33.256 27.072 33.248 27.008 33.232H26.624C26 33.232 25.304 33.264 24.536 33.328C23.784 33.376 23.032 33.464 22.28 33.592C21.544 33.704 20.88 33.856 20.288 34.048Z" fill="#81F75C"/>
</g>
<g filter="url(#filter8_d_208_23)">
<path d="M15.288 30.048C15.464 28.784 15.648 27.512 15.84 26.232C16.048 24.952 16.256 23.72 16.464 22.536C16.688 21.336 16.896 20.256 17.088 19.296C17.296 18.256 17.504 17.2 17.712 16.128C17.92 15.056 18.136 13.976 18.36 12.888L22.56 12.336L21.312 17.76C21.088 18.704 20.856 19.72 20.616 20.808C20.392 21.88 20.184 22.92 19.992 23.928C19.8 24.936 19.648 25.832 19.536 26.616C19.936 26.584 20.36 26.568 20.808 26.568C21.272 26.552 21.68 26.544 22.032 26.544C22.048 26.912 22.08 27.304 22.128 27.72C22.176 28.12 22.224 28.472 22.272 28.776C22.336 29.064 22.368 29.224 22.368 29.256C22.304 29.256 22.24 29.256 22.176 29.256C22.128 29.256 22.072 29.248 22.008 29.232H21.624C21 29.232 20.304 29.264 19.536 29.328C18.784 29.376 18.032 29.464 17.28 29.592C16.544 29.704 15.88 29.856 15.288 30.048Z" fill="#81F75C"/>
</g>
<g filter="url(#filter9_d_208_23)">
<path d="M8.82 31.97C9.16 30.79 9.49 29.45 9.81 27.95C10.15 26.45 10.47 24.92 10.77 23.36C11.09 21.78 11.39 20.29 11.67 18.89C11.93 17.61 12.18 16.31 12.42 14.99C12.66 13.67 12.9 12.34 13.14 11L17.82 10.25C17.56 11.59 17.3 12.92 17.04 14.24C16.78 15.54 16.52 16.84 16.26 18.14C15.98 19.54 15.69 21.02 15.39 22.58C15.09 24.14 14.8 25.68 14.52 27.2C14.24 28.7 13.98 30.1 13.74 31.4C13.38 31.4 12.93 31.43 12.39 31.49C11.85 31.53 11.31 31.59 10.77 31.67C10.23 31.73 9.77 31.79 9.39 31.85C9.03 31.91 8.84 31.95 8.82 31.97Z" fill="#81F75C"/>
</g>
<g filter="url(#filter10_d_208_23)">
<path d="M65.288 33.048C65.464 31.784 65.648 30.512 65.84 29.232C66.048 27.952 66.256 26.72 66.464 25.536C66.688 24.336 66.896 23.256 67.088 22.296C67.296 21.256 67.504 20.2 67.712 19.128C67.92 18.056 68.136 16.976 68.36 15.888L72.56 15.336L71.312 20.76C71.088 21.704 70.856 22.72 70.616 23.808C70.392 24.88 70.184 25.92 69.992 26.928C69.8 27.936 69.648 28.832 69.536 29.616C69.936 29.584 70.36 29.568 70.808 29.568C71.272 29.552 71.68 29.544 72.032 29.544C72.048 29.912 72.08 30.304 72.128 30.72C72.176 31.12 72.224 31.472 72.272 31.776C72.336 32.064 72.368 32.224 72.368 32.256C72.304 32.256 72.24 32.256 72.176 32.256C72.128 32.256 72.072 32.248 72.008 32.232H71.624C71 32.232 70.304 32.264 69.536 32.328C68.784 32.376 68.032 32.464 67.28 32.592C66.544 32.704 65.88 32.856 65.288 33.048Z" fill="#81F75C"/>
</g>
<g filter="url(#filter11_d_208_23)">
<path d="M2.632 30.096C2.04 30.096 1.488 30.048 0.976 29.952C1.744 27.152 2.352 24.336 2.8 21.504C3.264 18.656 3.704 15.792 4.12 12.912C4.952 12.736 5.816 12.584 6.712 12.456C7.608 12.312 8.536 12.24 9.496 12.24C10.024 12.24 10.584 12.336 11.176 12.528C11.768 12.704 12.264 13.032 12.664 13.512C13.08 13.976 13.288 14.64 13.288 15.504C13.288 16.304 13.12 17.04 12.784 17.712C12.448 18.384 12.024 18.96 11.512 19.44C11 19.92 10.472 20.264 9.928 20.472C10.152 20.584 10.416 20.784 10.72 21.072C11.024 21.36 11.288 21.744 11.512 22.224C11.736 22.704 11.848 23.288 11.848 23.976C11.848 24.936 11.56 25.808 10.984 26.592C10.424 27.36 9.672 28 8.728 28.512C7.816 29.024 6.832 29.416 5.776 29.688C4.72 29.96 3.672 30.096 2.632 30.096ZM6.904 18.504C7.4 18.408 7.872 18.28 8.32 18.12C8.768 17.96 9.128 17.776 9.4 17.568C9.688 17.36 9.832 17.136 9.832 16.896C9.832 16.592 9.712 16.352 9.472 16.176C9.232 16 8.944 15.872 8.608 15.792C8.272 15.712 7.96 15.672 7.672 15.672H7.432C7.32 16.312 7.216 16.872 7.12 17.352C7.024 17.816 6.952 18.2 6.904 18.504ZM5.68 25.248C6 25.216 6.352 25.16 6.736 25.08C7.12 25 7.488 24.88 7.84 24.72C8.192 24.544 8.48 24.32 8.704 24.048C8.944 23.76 9.064 23.416 9.064 23.016C9.064 22.632 8.936 22.328 8.68 22.104C8.424 21.88 8.112 21.72 7.744 21.624C7.392 21.512 7.056 21.456 6.736 21.456H6.544C6.464 21.456 6.4 21.464 6.352 21.48C6.256 22.072 6.144 22.696 6.016 23.352C5.888 24.008 5.776 24.64 5.68 25.248Z" fill="#81F75C"/>
</g>
<defs>
<filter id="filter0_d_208_23" x="31.1924" y="14.312" width="14.5275" height="21.512" filterUnits="userSpaceOnUse" color-interpolation-filters="sRGB">
<feFlood flood-opacity="0" result="BackgroundImageFix"/>
<feColorMatrix in="SourceAlpha" type="matrix" values="0 0 0 0 0 0 0 0 0 0 0 0 0 0 0 0 0 0 127 0" result="hardAlpha"/>
<feOffset dx="2" dy="2"/>
<feGaussianBlur stdDeviation="0.9"/>
<feComposite in2="hardAlpha" operator="out"/>
<feColorMatrix type="matrix" values="0 0 0 0 0 0 0 0 0 0 0 0 0 0 0 0 0 0 0.57 0"/>
<feBlend mode="normal" in2="BackgroundImageFix" result="effect1_dropShadow_208_23"/>
<feBlend mode="normal" in="SourceGraphic" in2="effect1_dropShadow_208_23" result="shape"/>
</filter>
<filter id="filter1_d_208_23" x="25.8203" y="8.25" width="12.8" height="25.52" filterUnits="userSpaceOnUse" color-interpolation-filters="sRGB">
<feFlood flood-opacity="0" result="BackgroundImageFix"/>
<feColorMatrix in="SourceAlpha" type="matrix" values="0 0 0 0 0 0 0 0 0 0 0 0 0 0 0 0 0 0 127 0" result="hardAlpha"/>
<feOffset dx="2" dy="2"/>
<feGaussianBlur stdDeviation="0.9"/>
<feComposite in2="hardAlpha" operator="out"/>
<feColorMatrix type="matrix" values="0 0 0 0 0 0 0 0 0 0 0 0 0 0 0 0 0 0 0.57 0"/>
<feBlend mode="normal" in2="BackgroundImageFix" result="effect1_dropShadow_208_23"/>
<feBlend mode="normal" in="SourceGraphic" in2="effect1_dropShadow_208_23" result="shape"/>
</filter>
<filter id="filter2_d_208_23" x="59.8203" y="8.25" width="12.8" height="25.52" filterUnits="userSpaceOnUse" color-interpolation-filters="sRGB">
<feFlood flood-opacity="0" result="BackgroundImageFix"/>
<feColorMatrix in="SourceAlpha" type="matrix" values="0 0 0 0 0 0 0 0 0 0 0 0 0 0 0 0 0 0 127 0" result="hardAlpha"/>
<feOffset dx="2" dy="2"/>
<feGaussianBlur stdDeviation="0.9"/>
<feComposite in2="hardAlpha" operator="out"/>
<feColorMatrix type="matrix" values="0 0 0 0 0 0 0 0 0 0 0 0 0 0 0 0 0 0 0.57 0"/>
<feBlend mode="normal" in2="BackgroundImageFix" result="effect1_dropShadow_208_23"/>
<feBlend mode="normal" in="SourceGraphic" in2="effect1_dropShadow_208_23" result="shape"/>
</filter>
<filter id="filter3_d_208_23" x="51.1924" y="11.312" width="14.5275" height="21.512" filterUnits="userSpaceOnUse" color-interpolation-filters="sRGB">
<feFlood flood-opacity="0" result="BackgroundImageFix"/>
<feColorMatrix in="SourceAlpha" type="matrix" values="0 0 0 0 0 0 0 0 0 0 0 0 0 0 0 0 0 0 127 0" result="hardAlpha"/>
<feOffset dx="2" dy="2"/>
<feGaussianBlur stdDeviation="0.9"/>
<feComposite in2="hardAlpha" operator="out"/>
<feColorMatrix type="matrix" values="0 0 0 0 0 0 0 0 0 0 0 0 0 0 0 0 0 0 0.57 0"/>
<feBlend mode="normal" in2="BackgroundImageFix" result="effect1_dropShadow_208_23"/>
<feBlend mode="normal" in="SourceGraphic" in2="effect1_dropShadow_208_23" result="shape"/>
</filter>
<filter id="filter4_d_208_23" x="83.252" y="10.28" width="18.8645" height="24.576" filterUnits="userSpaceOnUse" color-interpolation-filters="sRGB">
<feFlood flood-opacity="0" result="BackgroundImageFix"/>
<feColorMatrix in="SourceAlpha" type="matrix" values="0 0 0 0 0 0 0 0 0 0 0 0 0 0 0 0 0 0 127 0" result="hardAlpha"/>
<feOffset dx="2" dy="2"/>
<feGaussianBlur stdDeviation="0.9"/>
<feComposite in2="hardAlpha" operator="out"/>
<feColorMatrix type="matrix" values="0 0 0 0 0 0 0 0 0 0 0 0 0 0 0 0 0 0 0.57 0"/>
<feBlend mode="normal" in2="BackgroundImageFix" result="effect1_dropShadow_208_23"/>
<feBlend mode="normal" in="SourceGraphic" in2="effect1_dropShadow_208_23" result="shape"/>
</filter>
<filter id="filter5_d_208_23" x="75.3359" y="11.48" width="15.8723" height="21.368" filterUnits="userSpaceOnUse" color-interpolation-filters="sRGB">
<feFlood flood-opacity="0" result="BackgroundImageFix"/>
<feColorMatrix in="SourceAlpha" type="matrix" values="0 0 0 0 0 0 0 0 0 0 0 0 0 0 0 0 0 0 127 0" result="hardAlpha"/>
<feOffset dx="2" dy="2"/>
<feGaussianBlur stdDeviation="0.9"/>
<feComposite in2="hardAlpha" operator="out"/>
<feColorMatrix type="matrix" values="0 0 0 0 0 0 0 0 0 0 0 0 0 0 0 0 0 0 0.57 0"/>
<feBlend mode="normal" in2="BackgroundImageFix" result="effect1_dropShadow_208_23"/>
<feBlend mode="normal" in="SourceGraphic" in2="effect1_dropShadow_208_23" result="shape"/>
</filter>
<filter id="filter6_d_208_23" x="70.8203" y="5.25" width="12.8" height="25.52" filterUnits="userSpaceOnUse" color-interpolation-filters="sRGB">
<feFlood flood-opacity="0" result="BackgroundImageFix"/>
<feColorMatrix in="SourceAlpha" type="matrix" values="0 0 0 0 0 0 0 0 0 0 0 0 0 0 0 0 0 0 127 0" result="hardAlpha"/>
<feOffset dx="2" dy="2"/>
<feGaussianBlur stdDeviation="0.9"/>
<feComposite in2="hardAlpha" operator="out"/>
<feColorMatrix type="matrix" values="0 0 0 0 0 0 0 0 0 0 0 0 0 0 0 0 0 0 0.57 0"/>
<feBlend mode="normal" in2="BackgroundImageFix" result="effect1_dropShadow_208_23"/>
<feBlend mode="normal" in="SourceGraphic" in2="effect1_dropShadow_208_23" result="shape"/>
</filter>
<filter id="filter7_d_208_23" x="20.2881" y="16.3361" width="11.0715" height="21.5119" filterUnits="userSpaceOnUse" color-interpolation-filters="sRGB">
<feFlood flood-opacity="0" result="BackgroundImageFix"/>
<feColorMatrix in="SourceAlpha" type="matrix" values="0 0 0 0 0 0 0 0 0 0 0 0 0 0 0 0 0 0 127 0" result="hardAlpha"/>
<feOffset dx="2" dy="2"/>
<feGaussianBlur stdDeviation="0.9"/>
<feComposite in2="hardAlpha" operator="out"/>
<feColorMatrix type="matrix" values="0 0 0 0 0 0 0 0 0 0 0 0 0 0 0 0 0 0 0.57 0"/>
<feBlend mode="normal" in2="BackgroundImageFix" result="effect1_dropShadow_208_23"/>
<feBlend mode="normal" in="SourceGraphic" in2="effect1_dropShadow_208_23" result="shape"/>
</filter>
<filter id="filter8_d_208_23" x="15.2881" y="12.3361" width="11.0715" height="21.5119" filterUnits="userSpaceOnUse" color-interpolation-filters="sRGB">
<feFlood flood-opacity="0" result="BackgroundImageFix"/>
<feColorMatrix in="SourceAlpha" type="matrix" values="0 0 0 0 0 0 0 0 0 0 0 0 0 0 0 0 0 0 127 0" result="hardAlpha"/>
<feOffset dx="2" dy="2"/>
<feGaussianBlur stdDeviation="0.9"/>
<feComposite in2="hardAlpha" operator="out"/>
<feColorMatrix type="matrix" values="0 0 0 0 0 0 0 0 0 0 0 0 0 0 0 0 0 0 0.57 0"/>
<feBlend mode="normal" in2="BackgroundImageFix" result="effect1_dropShadow_208_23"/>
<feBlend mode="normal" in="SourceGraphic" in2="effect1_dropShadow_208_23" result="shape"/>
</filter>
<filter id="filter9_d_208_23" x="8.82031" y="10.25" width="12.8" height="25.52" filterUnits="userSpaceOnUse" color-interpolation-filters="sRGB">
<feFlood flood-opacity="0" result="BackgroundImageFix"/>
<feColorMatrix in="SourceAlpha" type="matrix" values="0 0 0 0 0 0 0 0 0 0 0 0 0 0 0 0 0 0 127 0" result="hardAlpha"/>
<feOffset dx="2" dy="2"/>
<feGaussianBlur stdDeviation="0.9"/>
<feComposite in2="hardAlpha" operator="out"/>
<feColorMatrix type="matrix" values="0 0 0 0 0 0 0 0 0 0 0 0 0 0 0 0 0 0 0.57 0"/>
<feBlend mode="normal" in2="BackgroundImageFix" result="effect1_dropShadow_208_23"/>
<feBlend mode="normal" in="SourceGraphic" in2="effect1_dropShadow_208_23" result="shape"/>
</filter>
<filter id="filter10_d_208_23" x="65.2881" y="15.3361" width="11.0715" height="21.5119" filterUnits="userSpaceOnUse" color-interpolation-filters="sRGB">
<feFlood flood-opacity="0" result="BackgroundImageFix"/>
<feColorMatrix in="SourceAlpha" type="matrix" values="0 0 0 0 0 0 0 0 0 0 0 0 0 0 0 0 0 0 127 0" result="hardAlpha"/>
<feOffset dx="2" dy="2"/>
<feGaussianBlur stdDeviation="0.9"/>
<feComposite in2="hardAlpha" operator="out"/>
<feColorMatrix type="matrix" values="0 0 0 0 0 0 0 0 0 0 0 0 0 0 0 0 0 0 0.57 0"/>
<feBlend mode="normal" in2="BackgroundImageFix" result="effect1_dropShadow_208_23"/>
<feBlend mode="normal" in="SourceGraphic" in2="effect1_dropShadow_208_23" result="shape"/>
</filter>
<filter id="filter11_d_208_23" x="0.975586" y="12.24" width="16.1125" height="21.656" filterUnits="userSpaceOnUse" color-interpolation-filters="sRGB">
<feFlood flood-opacity="0" result="BackgroundImageFix"/>
<feColorMatrix in="SourceAlpha" type="matrix" values="0 0 0 0 0 0 0 0 0 0 0 0 0 0 0 0 0 0 127 0" result="hardAlpha"/>
<feOffset dx="2" dy="2"/>
<feGaussianBlur stdDeviation="0.9"/>
<feComposite in2="hardAlpha" operator="out"/>
<feColorMatrix type="matrix" values="0 0 0 0 0 0 0 0 0 0 0 0 0 0 0 0 0 0 0.57 0"/>
<feBlend mode="normal" in2="BackgroundImageFix" result="effect1_dropShadow_208_23"/>
<feBlend mode="normal" in="SourceGraphic" in2="effect1_dropShadow_208_23" result="shape"/>
</filter>
</defs>
</svg>
